# xmcd
#
# Track frame offsets: 
#        150
#        25575
#        94072
#        111572
#        144917
#        169367
#        191767
#        213417
#        261756
#        279814
#
# Disc length: 3924 seconds
#
# Revision: 0
# Processed by: cddbd v1.5.2PL0 Copyright (c) Steve Scherf et al.
# Submitted via: ExactAudioCopy v0.99pb4
#
DISCID=8c0f520a
DTITLE=Leila Adu - Truth in the Abstract Blues
DYEAR=2009
DGENRE=Blues
TTITLE0=If I Had Possession Over Judgement
TTITLE1=New Earth (Medley)
TTITLE2=Hard Time Killing Floor
TTITLE3=Abstract Blues pt3 - Hellhound on My Trail
TTITLE4=Please Forgive Me Brother - Grinning in Your Face
TTITLE5=Walking My Troubles Away
TTITLE6=Empty Bed Blues
TTITLE7=Hollers'n'Drones (Medley)
TTITLE8=Long Old Road
TTITLE9=Feeling Good
EXTD=
EXTT0=
EXTT1=
EXTT2=
EXTT3=
EXTT4=
EXTT5=
EXTT6=
EXTT7=
EXTT8=
EXTT9=
PLAYORDER=
